<svg width="13" height="18" viewBox="0 0 13 18" fill="none" xmlns="http://www.w3.org/2000/svg">
<path d="M12.933 8.699C12.8718 8.46542 12.7505 8.25199 12.581 8.08C12.5046 8.01343 12.4191 7.9582 12.327 7.916C12.2809 7.89626 12.2335 7.87988 12.185 7.867H12.174C12.1082 7.85116 12.0414 7.83981 11.974 7.833H11.958C11.915 7.833 11.867 7.833 11.821 7.827H11.412V7.094H11.394C11.401 6.341 11.437 5.594 11.383 4.856C11.2916 3.87493 10.8942 2.94739 10.2469 2.20449C9.59969 1.46158 8.73531 0.940889 7.776 0.715998C7.513 0.655998 7.24501 0.615998 6.97601 0.572998H6.36501C6.22701 0.595998 6.08901 0.620998 5.95001 0.640998C4.8388 0.812201 3.82429 1.37186 3.08679 2.22049C2.34929 3.06913 1.93658 4.15177 1.92201 5.276C1.92201 5.784 1.92201 6.29166 1.92201 6.799V7.825H1.52201C1.47501 7.825 1.42201 7.825 1.38301 7.832H1.36901C1.30165 7.83879 1.23483 7.85015 1.16901 7.866H1.16201C1.01308 7.90382 0.875715 7.97765 0.762005 8.081C0.592943 8.25273 0.471911 8.46583 0.411005 8.699C0.411267 8.70099 0.411267 8.70301 0.411005 8.705C0.400056 8.76339 0.394035 8.8226 0.393005 8.882V16.797C0.39337 16.8641 0.400067 16.9311 0.413006 16.997C0.431006 17.05 0.448006 17.104 0.468006 17.157C0.526245 17.3157 0.621787 17.458 0.746574 17.572C0.871361 17.686 1.02173 17.7683 1.18501 17.812C1.20701 17.819 1.22901 17.827 1.25101 17.835C1.31689 17.848 1.38386 17.8547 1.45101 17.855H11.895C11.9642 17.8547 12.0332 17.8477 12.101 17.834C12.164 17.813 12.228 17.792 12.289 17.767C12.4403 17.7055 12.5752 17.6098 12.6832 17.4873C12.7911 17.3647 12.8691 17.2188 12.911 17.061C12.918 17.038 12.927 17.016 12.935 16.994C12.948 16.9281 12.9547 16.8611 12.955 16.794C12.954 14.108 12.933 11.392 12.933 8.699ZM7.37501 13.237C7.3335 13.2635 7.30013 13.301 7.2786 13.3453C7.25707 13.3896 7.24821 13.439 7.25301 13.488C7.25301 13.993 7.25301 14.498 7.25301 15.003C7.25301 15.1578 7.19153 15.3062 7.0821 15.4156C6.97267 15.525 6.82426 15.5865 6.66951 15.5865C6.51475 15.5865 6.36634 15.525 6.25691 15.4156C6.14748 15.3062 6.08601 15.1578 6.08601 15.003C6.08601 14.4963 6.08601 13.99 6.08601 13.484C6.0908 13.4377 6.08291 13.3911 6.06318 13.349C6.04345 13.3068 6.01262 13.2709 5.97401 13.245C5.75503 13.0898 5.59719 12.8629 5.5278 12.6036C5.45841 12.3443 5.48183 12.0689 5.59401 11.825C5.70326 11.5798 5.89304 11.3794 6.13187 11.2568C6.3707 11.1343 6.64423 11.0971 6.9071 11.1514C7.16997 11.2057 7.4064 11.3482 7.57717 11.5553C7.74794 11.7624 7.84279 12.0216 7.84601 12.29C7.85266 12.4746 7.81305 12.6579 7.73079 12.8233C7.64854 12.9887 7.52623 13.1309 7.37501 13.237ZM9.40001 7.089V7.822H3.93701V7.278C3.94512 7.24941 3.9485 7.21968 3.94701 7.19C3.94701 6.777 3.94101 6.364 3.94701 5.951C3.93722 5.59517 3.95058 5.23909 3.98701 4.885C4.09496 4.21639 4.44828 3.61203 4.97798 3.18999C5.50767 2.76794 6.17567 2.55852 6.85151 2.60264C7.52734 2.64675 8.16245 2.94123 8.63278 3.42855C9.10312 3.91587 9.37489 4.56103 9.39501 5.238C9.40701 5.855 9.40001 6.472 9.40001 7.089Z" fill="#4C60EB"/>
</svg>
