<svg width="17" height="12" viewBox="0 0 17 12" fill="none" xmlns="http://www.w3.org/2000/svg">
<path d="M8.90244 0L8.88626 0.0813913L6.27757 11.5597L6.17948 12H7.79374L7.80991 11.9186L10.4186 0.440348L10.5167 0H8.90244V0ZM5.21739 1.56522L5.00557 1.72852L0.309913 5.3807L0 5.62539V6.37565L0.309913 6.62035L5.00557 10.2725L5.21739 10.4358V8.46313L2.05409 6.00104L5.21739 3.53896V1.56626V1.56522ZM11.4783 1.56522V3.53791L14.6416 6L11.4783 8.46209V10.4348L11.6901 10.2715L16.3857 6.6193L16.6957 6.37461V5.62435L16.3857 5.37965L11.6901 1.72748L11.4783 1.56417V1.56522Z" fill="#4C60EB"/>
</svg>
