<svg width="20" height="21" viewBox="0 0 20 21" fill="none" xmlns="http://www.w3.org/2000/svg">
<path d="M9.72903 0.850003C11.6597 0.845454 13.5484 1.41411 15.1556 2.48392C16.7628 3.55374 18.0163 5.07656 18.7573 6.85944C19.4982 8.64232 19.6933 10.605 19.3177 12.4989C18.9422 14.3927 18.0129 16.1325 16.6477 17.4977C15.2825 18.8629 13.5427 19.7922 11.6489 20.1677C9.75504 20.5433 7.79234 20.3482 6.00946 19.6072C4.22658 18.8663 2.70376 17.6128 1.63395 16.0056C0.564136 14.3983 -0.00452116 12.5097 2.70712e-05 10.579C0.01108 8.00212 1.03965 5.53392 2.8618 3.71177C4.68395 1.88962 7.15214 0.861056 9.72903 0.850003ZM9.72903 1.818C7.99626 1.818 6.30242 2.33183 4.86168 3.2945C3.42094 4.25717 2.29802 5.62545 1.63492 7.22631C0.971819 8.82718 0.798322 10.5887 1.13637 12.2882C1.47441 13.9877 2.30882 15.5487 3.53406 16.774C4.75931 17.9992 6.32037 18.8336 8.01984 19.1717C9.71931 19.5097 11.4809 19.3362 13.0817 18.6731C14.6826 18.01 16.0509 16.8871 17.0135 15.4464C17.9762 14.0056 18.49 12.3118 18.49 10.579C18.4906 9.42834 18.2643 8.28886 17.8242 7.22569C17.3841 6.16252 16.7388 5.19651 15.9252 4.38287C15.1115 3.56923 14.1455 2.92392 13.0823 2.48382C12.0192 2.04373 10.8797 1.81748 9.72903 1.818Z" fill="#4C60EB"/>
</svg>
