<svg width="11" height="11" viewBox="0 0 11 11" fill="none" xmlns="http://www.w3.org/2000/svg">
<path d="M10.8862 0.113786C10.8129 0.0409069 10.7137 0 10.6104 0C10.507 0 10.4078 0.0409069 10.3345 0.113786L8.26062 2.18766L7.9828 1.90984C7.90948 1.83696 7.81031 1.79606 7.70693 1.79606C7.60356 1.79606 7.50438 1.83696 7.43107 1.90984L6.535 2.80591L6.25718 2.52809C5.89028 2.16131 5.39273 1.95526 4.87394 1.95526C4.35515 1.95526 3.8576 2.16131 3.4907 2.52809L1.41291 4.60588C1.33805 4.54178 1.24177 4.50828 1.14329 4.51208C1.04481 4.51589 0.951387 4.55671 0.881699 4.6264C0.812011 4.69609 0.771186 4.78951 0.767382 4.88799C0.763578 4.98647 0.797075 5.08276 0.86118 5.15761L1.139 5.43543V5.39239L5.56067 9.78275L5.83849 10.0997C5.90994 10.1795 6.00949 10.2286 6.11631 10.2367C6.21921 10.2394 6.31902 10.2014 6.39413 10.131C6.46583 10.0579 6.50599 9.95952 6.50599 9.8571C6.50599 9.75467 6.46583 9.65633 6.39413 9.58319L8.47192 7.5054C8.83871 7.1385 9.04475 6.64095 9.04475 6.12216C9.04475 5.60337 8.83871 5.10582 8.47192 4.73892L8.1941 4.4611L9.09017 3.56503C9.16305 3.49172 9.20396 3.39254 9.20396 3.28917C9.20396 3.18579 9.16305 3.08662 9.09017 3.0133L8.81235 2.73939L10.8823 0.669429C10.9192 0.633312 10.9487 0.590239 10.9689 0.542696C10.9891 0.495152 10.9997 0.444079 11 0.392423C11.0004 0.340767 10.9905 0.289549 10.971 0.241726C10.9515 0.193903 10.9226 0.15042 10.8862 0.113786Z" fill="#4C60EB"/>
</svg>
