<svg width="21" height="21" viewBox="0 0 21 21" fill="none" xmlns="http://www.w3.org/2000/svg">
<path d="M20.89 8.32L20.1 5.8C20.0147 5.50876 19.8716 5.23767 19.6793 5.00292C19.4869 4.76817 19.2493 4.57456 18.9805 4.43364C18.7117 4.29272 18.4173 4.20737 18.1149 4.1827C17.8124 4.15802 17.508 4.19451 17.22 4.29L16.88 4.4C16.6136 4.48805 16.3299 4.51039 16.0531 4.46511C15.7762 4.41984 15.5144 4.3083 15.29 4.14L15.18 4.06C14.961 3.89237 14.7844 3.67562 14.6646 3.42723C14.5447 3.17884 14.4849 2.90575 14.49 2.63V2.35C14.4948 1.72202 14.2503 1.11779 13.81 0.67C13.6005 0.458452 13.3514 0.290362 13.0768 0.175383C12.8022 0.0604042 12.5077 0.000802192 12.21 0H9.65997C9.04815 0.00790627 8.46422 0.257192 8.03532 0.693583C7.60642 1.12997 7.36729 1.71813 7.36997 2.33V2.57C7.36901 2.86027 7.30293 3.14663 7.17659 3.40796C7.05024 3.6693 6.86687 3.89895 6.63997 4.08L6.50997 4.18C6.25932 4.36962 5.96614 4.49516 5.65593 4.5457C5.34572 4.59624 5.02786 4.57025 4.72997 4.47C4.45639 4.37533 4.16644 4.33715 3.87767 4.35777C3.5889 4.3784 3.30732 4.4574 3.04997 4.59C2.78203 4.72299 2.54432 4.90969 2.35163 5.1385C2.15895 5.36731 2.01542 5.63333 1.92997 5.92L1.10997 8.52C0.919816 9.1062 0.968582 9.74374 1.24568 10.2942C1.52278 10.8447 2.00585 11.2636 2.58997 11.46H2.74997C3.01943 11.561 3.26128 11.7241 3.45588 11.9361C3.65048 12.148 3.79235 12.4029 3.86997 12.68L3.92997 12.84C4.04145 13.1461 4.07873 13.4743 4.03875 13.7977C3.99876 14.121 3.88266 14.4302 3.69997 14.7C3.33019 15.2036 3.17422 15.8328 3.26598 16.4508C3.35774 17.0688 3.68982 17.6256 4.18997 18L6.25997 19.57C6.65193 19.855 7.12541 20.0058 7.60997 20C7.73966 20.0127 7.87028 20.0127 7.99997 20C8.30008 19.9419 8.5852 19.8233 8.83793 19.6514C9.09067 19.4794 9.30573 19.2578 9.46997 19L9.69997 18.67C9.86131 18.4386 10.0748 18.2483 10.3232 18.1145C10.5716 17.9808 10.8479 17.9073 11.13 17.9C11.4255 17.8927 11.7181 17.9604 11.9804 18.0968C12.2427 18.2332 12.4662 18.4339 12.63 18.68L12.75 18.85C12.9205 19.1037 13.1411 19.3199 13.3983 19.4852C13.6555 19.6504 13.9438 19.7613 14.2454 19.8109C14.5471 19.8606 14.8557 19.848 15.1523 19.7739C15.4489 19.6997 15.7271 19.5657 15.97 19.38L18 17.86C18.4799 17.4872 18.7991 16.945 18.8921 16.3444C18.9851 15.7438 18.8448 15.1304 18.5 14.63L18.24 14.25C18.0836 14.0084 17.9812 13.736 17.9398 13.4512C17.8984 13.1664 17.9189 12.8761 18 12.6C18.0826 12.3044 18.2359 12.0334 18.4467 11.8104C18.6576 11.5874 18.9195 11.4191 19.21 11.32L19.41 11.25C19.9887 11.0492 20.4666 10.6312 20.7428 10.0845C21.019 9.53769 21.0718 8.90496 20.89 8.32ZM11 13.5C10.3077 13.5 9.63105 13.2947 9.05548 12.9101C8.47991 12.5256 8.0313 11.9789 7.7664 11.3394C7.50149 10.6999 7.43218 9.99612 7.56722 9.31718C7.70227 8.63825 8.03562 8.01461 8.5251 7.52513C9.01458 7.03564 9.63822 6.7023 10.3172 6.56725C10.9961 6.4322 11.6998 6.50151 12.3394 6.76642C12.9789 7.03133 13.5255 7.47993 13.9101 8.0555C14.2947 8.63108 14.5 9.30777 14.5 10C14.5 10.9283 14.1312 11.8185 13.4748 12.4749C12.8185 13.1313 11.9282 13.5 11 13.5Z" fill="white"/>
</svg>
